<svg width="69" height="70" viewBox="0 0 69 70" fill="none" xmlns="http://www.w3.org/2000/svg">
<g clip-path="url(#clip0)">
<path fill-rule="evenodd" clip-rule="evenodd" d="M34.3105 67.0833C16.9566 67.0833 2.86704 52.7071 2.86704 35C2.86704 17.2929 16.9566 2.91667 34.3105 2.91667C51.6645 2.91667 65.754 17.2929 65.754 35C65.754 52.7071 51.6645 67.0833 34.3105 67.0833ZM34.3105 0C15.3787 0 0.00854492 15.6829 0.00854492 35C0.00854492 54.3171 15.3787 70 34.3105 70C53.2424 70 68.6125 54.3171 68.6125 35C68.6125 15.6829 53.2424 0 34.3105 0ZM30.3687 37.905C30.0114 34.8046 28.3563 32.06 25.7979 30.3188L27.1929 27.5129L31.878 37.905H30.3687V37.905ZM20.018 47.2821C15.6331 47.2821 12.0657 43.6421 12.0657 39.1679C12.0657 34.6938 15.6331 31.0508 20.018 31.0508C20.8527 31.0508 21.6788 31.185 22.4678 31.4446L19.7694 36.8783C18.6345 37.0038 17.7598 37.9867 17.7598 39.1679C17.7598 40.4367 18.7746 41.4692 20.018 41.4692C20.7784 41.4692 21.4902 41.0725 21.9075 40.4279H27.8761C27.2758 44.3538 23.9399 47.2821 20.018 47.2821V47.2821ZM22.0304 37.905L24.6717 32.585C26.3925 33.8596 27.5473 35.7758 27.8761 37.905H22.0304V37.905ZM40.7793 26.8858L33.8446 36.2367L29.6197 26.8858H40.7793ZM48.603 47.2821C44.2181 47.2821 40.6507 43.6421 40.6507 39.1679C40.6507 36.3417 42.1057 33.7108 44.4639 32.2379L46.7422 37.8671C46.4849 38.2521 46.3477 38.6983 46.3477 39.1679C46.3477 40.4367 47.3596 41.4692 48.603 41.4692C49.8465 41.4692 50.8584 40.4367 50.8584 39.1679C50.8584 38.0596 50.0809 37.1088 49.0261 36.9046L46.7507 31.2754C47.351 31.1267 47.9742 31.0508 48.603 31.0508C52.988 31.0508 56.5554 34.6938 56.5554 39.1679C56.5554 43.6421 52.988 47.2821 48.603 47.2821V47.2821ZM48.603 28.5308C47.6512 28.5308 46.7079 28.6621 45.8017 28.9217L42.28 20.1979H37.372C36.6802 20.1979 36.1371 20.7813 36.1371 21.4579C36.1371 22.1521 36.6917 22.7208 37.372 22.7208H40.6107L41.2881 24.3658H28.5135L27.7531 22.7208H28.1676C28.8622 22.7208 29.4025 22.1433 29.4025 21.4579C29.4025 20.7608 28.8508 20.1979 28.1676 20.1979H23.0795C22.7508 20.1979 22.4392 20.3292 22.2077 20.5654C21.9733 20.8046 21.8446 21.1225 21.8446 21.4579C21.8446 22.1521 22.3992 22.7208 23.0795 22.7208H25.0318L25.8722 24.5904L23.594 29.1754C22.4535 28.7467 21.2501 28.5308 20.018 28.5308C14.2696 28.5308 9.59595 33.3025 9.59595 39.1679C9.59595 45.0304 14.2696 49.8021 20.018 49.8021C25.3349 49.8021 29.7512 45.7858 30.3687 40.4279H33.8446L42.8489 28.2538L43.512 29.8871C40.2162 31.7742 38.1809 35.3092 38.1809 39.1679C38.1809 45.0304 42.8546 49.8021 48.603 49.8021C54.3515 49.8021 59.0251 45.0304 59.0251 39.1679C59.0251 33.3025 54.3515 28.5308 48.603 28.5308Z" fill="white"/>
</g>
<defs>
<clipPath id="clip0">
<rect x="0.00854492" width="68.604" height="70" fill="white"/>
</clipPath>
</defs>
</svg>
