<svg width="69" height="70" viewBox="0 0 69 70" fill="none" xmlns="http://www.w3.org/2000/svg">
<g clip-path="url(#clip0)">
<path fill-rule="evenodd" clip-rule="evenodd" d="M50.4175 26.8596C51.7153 26.4629 53.0959 26.25 54.5195 26.25C62.4061 26.25 68.812 32.7833 68.812 40.8333C68.812 48.8833 62.4061 55.4166 54.5195 55.4166C46.63 55.4166 40.227 48.8833 40.227 40.8333C40.227 35.2741 43.2798 30.4383 47.7706 27.9766L46.5443 24.9462L33.6982 42.2916H28.7215C28.004 49.6562 21.904 55.4166 14.5005 55.4166C6.61102 55.4166 0.207977 48.8833 0.207977 40.8333C0.207977 32.7833 6.61102 26.25 14.5005 26.25C16.3156 26.25 18.0564 26.5971 19.6543 27.23L23.0302 20.4312L21.7096 17.5H18.7882C17.9964 17.5 17.359 16.8466 17.359 16.0416C17.359 15.3446 17.8992 14.5833 18.7882 14.5833H25.9087C26.5919 14.5833 27.338 15.1346 27.338 16.0416C27.338 16.9487 26.5948 17.5 25.9087 17.5H24.8568L26.2003 20.4166H44.7348L43.5314 17.5H38.7977C38.0059 17.5 37.3685 16.8466 37.3685 16.0416C37.3685 15.1346 38.1088 14.5833 38.7977 14.5833H45.458L50.4175 26.8596ZM18.3537 29.8462C17.1503 29.4058 15.8525 29.1666 14.5005 29.1666C8.18891 29.1666 3.06648 34.3933 3.06648 40.8333C3.06648 47.2733 8.18891 52.5 14.5005 52.5C20.3261 52.5 25.1398 48.0433 25.8459 42.2916H16.9759C16.4786 43.1637 15.5553 43.75 14.5005 43.75C12.9226 43.75 11.642 42.4433 11.642 40.8333C11.642 39.2787 12.8397 38.0041 14.3433 37.9225L18.3537 29.8462V29.8462ZM48.8682 30.6891C45.4151 32.6987 43.0855 36.4904 43.0855 40.8333C43.0855 47.2733 48.2079 52.5 54.5195 52.5C60.831 52.5 65.9535 47.2733 65.9535 40.8333C65.9535 34.3933 60.831 29.1666 54.5195 29.1666C53.479 29.1666 52.4728 29.3096 51.5152 29.575L54.8939 37.9429C56.2975 38.1296 57.378 39.3546 57.378 40.8333C57.378 42.4433 56.0945 43.75 54.5195 43.75C52.9416 43.75 51.661 42.4433 51.661 40.8333C51.661 40.1654 51.8811 39.55 52.2527 39.0571L48.8682 30.6891ZM20.9035 31.1704L16.893 39.2379L16.9759 39.375H25.8459C25.4257 35.9654 23.5648 33.0079 20.9035 31.1704V31.1704ZM22.2013 28.5512C25.7858 30.8962 28.2784 34.8279 28.7215 39.375H31.5714L24.5567 23.8116L22.2013 28.5512ZM44.1631 23.3333H27.4723L33.7953 37.3246L44.1631 23.3333Z" fill="white"/>
</g>
<defs>
<clipPath id="clip0">
<rect x="0.207977" width="68.604" height="70" fill="white"/>
</clipPath>
</defs>
</svg>
