<svg width="69" height="70" viewBox="0 0 69 70" fill="none" xmlns="http://www.w3.org/2000/svg">
<g clip-path="url(#clip0)">
<path fill-rule="evenodd" clip-rule="evenodd" d="M19.6373 30.1467L23.0132 23.3479L21.6925 20.4167H8.76353V17.5H25.8917C26.572 17.5 27.3209 18.0542 27.3209 18.9584C27.3209 19.8654 26.5777 20.4167 25.8917 20.4167H24.8397L26.1832 23.3334H44.7149L42.3109 17.5H51.581C53.9335 17.5146 55.8402 19.4688 55.8402 21.875C55.8402 24.29 53.9192 26.25 51.5524 26.25C49.52 26.25 49.4743 23.3334 51.5524 23.3334C52.2356 23.3334 52.9817 22.7821 52.9817 21.875C52.9817 21.1779 52.4414 20.4167 51.5524 20.4167H46.6158L50.4004 29.7763C51.6982 29.3796 53.076 29.1667 54.4995 29.1667C62.389 29.1667 68.792 35.7 68.792 43.75C68.792 51.8 62.389 58.3334 54.4995 58.3334C46.6129 58.3334 40.207 51.8 40.207 43.75C40.207 38.1909 43.2628 33.355 47.7535 30.8934L46.5243 27.8629L33.6811 45.2084H28.7016C27.9841 52.5729 21.8869 58.3334 14.4805 58.3334C6.59393 58.3334 0.188034 51.8 0.188034 43.75C0.188034 35.7 6.59393 29.1667 14.4805 29.1667C16.2985 29.1667 18.0365 29.5138 19.6373 30.1467V30.1467ZM18.3366 32.7629C17.1332 32.3225 15.8326 32.0834 14.4805 32.0834C8.17182 32.0834 3.04653 37.31 3.04653 43.75C3.04653 50.19 8.17182 55.4167 14.4805 55.4167C20.3062 55.4167 25.1227 50.96 25.8288 45.2084H16.9589C16.4615 46.0804 15.5382 46.6667 14.4805 46.6667C12.9055 46.6667 11.622 45.36 11.622 43.75C11.622 42.1954 12.8197 40.9209 14.3262 40.8392L18.3366 32.7629ZM48.8511 33.6088C45.3981 35.6154 43.0655 39.4071 43.0655 43.75C43.0655 50.19 48.188 55.4167 54.4995 55.4167C60.8111 55.4167 65.9335 50.19 65.9335 43.75C65.9335 37.31 60.8111 32.0834 54.4995 32.0834C53.4619 32.0834 52.4528 32.2263 51.4981 32.4917L54.8768 40.8596C56.2775 41.0463 57.358 42.2713 57.358 43.75C57.358 45.36 56.0774 46.6667 54.4995 46.6667C52.9245 46.6667 51.641 45.36 51.641 43.75C51.641 43.0821 51.8611 42.4667 52.2327 41.9738L48.8511 33.6088V33.6088ZM20.8864 34.0871L16.876 42.1546L16.9589 42.2917H25.8288C25.4086 38.8821 23.5477 35.9246 20.8864 34.0871V34.0871ZM22.1842 31.4679C25.7687 33.8129 28.2614 37.7446 28.7016 42.2917H31.5543L24.5367 26.7284L22.1842 31.4679V31.4679ZM44.146 26.25H27.4553L33.7754 40.2413L44.146 26.25ZM3.04653 26.25H14.4805V23.3334H3.04653V26.25ZM5.90503 14.5834H17.339V11.6667H5.90503V14.5834Z" fill="white"/>
</g>
<defs>
<clipPath id="clip0">
<rect x="0.188034" width="68.604" height="70" fill="white"/>
</clipPath>
</defs>
</svg>
