<svg width="386" height="80" viewBox="0 0 386 80" fill="none" xmlns="http://www.w3.org/2000/svg">
<path d="M31.5446 47.4817C32.8843 48.8398 33.4153 51.2571 32.573 54.5309C31.7436 57.7547 29.6461 61.4293 26.3931 64.6923C23.1401 67.9553 19.485 70.051 16.2838 70.8704C13.0328 71.7025 10.6384 71.1542 9.29866 69.7961C7.9589 68.4379 7.42788 66.0206 8.27021 62.7468C9.09965 59.5231 11.1971 55.8484 14.4501 52.5854C17.7031 49.3224 21.3582 47.2267 24.5595 46.4074C27.8104 45.5753 30.2048 46.1235 31.5446 47.4817Z" stroke="#E5E5E5" stroke-width="4"/>
<path d="M59.9018 47.0896C61.4158 48.6244 61.9243 51.2565 61.0592 54.619C60.2037 57.9439 58.0535 61.695 54.7484 65.0103C51.4433 68.3256 47.7122 70.4739 44.4104 71.319C41.0714 72.1737 38.4639 71.647 36.9499 70.1122C35.4358 68.5774 34.9273 65.9452 35.7925 62.5827C36.648 59.2578 38.7981 55.5067 42.1032 52.1915C45.4083 48.8762 49.1395 46.7278 52.4412 45.8827C55.7802 45.0281 58.3877 45.5548 59.9018 47.0896Z" stroke="#E5E5E5" stroke-width="3"/>
<path d="M49.3298 60.7255C43.9993 59.5441 41.7309 51.5248 42.2328 47.0192C41.6709 44.2565 43.4259 40.4238 40.9297 43.7844C37.2842 48.6925 29.7733 54.9106 23.815 58.4119L15.6902 58.6337C22.8068 55.9607 37.7775 48.2718 40.7282 38.9007C43.679 29.5296 34.8025 29.1011 29.9954 30.0582C25.4263 28.855 19.1614 26.5664 30.6536 27.0383C41.7535 27.4941 44.0867 35.0609 43.8825 39.1706C44.1836 35.4013 45.397 28.3904 48.1585 27.4446C51.027 26.4623 54.2304 30.432 55.4736 32.5396L54.5136 36.9437C52.3517 31.1734 47.509 23.6951 45.434 39.9437C42.8404 60.2545 55.9929 62.2024 49.3298 60.7255Z" fill="#E5E5E5" stroke="#FFF1C1"/>
<path d="M79.0546 39.6133C79.8749 39.7591 80.5494 39.8594 81.078 39.9141C81.6067 39.9688 82.0351 40.0143 82.3632 40.0508C82.746 40.0872 83.0468 40.0964 83.2655 40.0781H84.0859C84.3775 40.0781 84.7421 40.0781 85.1796 40.0781C85.6353 40.0599 86.2004 40.0508 86.8749 40.0508C87.2577 40.944 87.6041 41.7643 87.914 42.5117C88.2421 43.2591 88.5155 43.8971 88.7343 44.4258C88.9895 45.0638 89.2265 45.638 89.4452 46.1484C89.7004 46.7865 89.9739 47.4883 90.2655 48.2539C90.5572 49.0195 90.8215 49.7396 91.0585 50.4141C91.3137 51.0885 91.5234 51.6445 91.6874 52.082C91.8515 52.5195 91.9335 52.7201 91.9335 52.6836C91.9335 52.6654 91.9426 52.4831 91.9609 52.1367C91.9791 51.7721 91.9973 51.3255 92.0155 50.7969C92.0338 50.25 92.052 49.6576 92.0702 49.0195C92.1067 48.3633 92.1249 47.7344 92.1249 47.1328C92.1432 46.513 92.1523 45.9479 92.1523 45.4375C92.1523 44.9271 92.134 44.5443 92.0976 44.2891C92.0429 43.9792 91.9335 43.6237 91.7695 43.2227C91.6236 42.8763 91.4231 42.4661 91.1679 41.9922C90.9127 41.5 90.5572 40.944 90.1015 40.3242C90.8489 40.3424 91.4596 40.3516 91.9335 40.3516C92.4075 40.3516 92.7903 40.3516 93.082 40.3516C93.4101 40.3516 93.6653 40.3424 93.8476 40.3242C94.0846 40.3242 94.3762 40.306 94.7226 40.2695C95.0325 40.2331 95.4153 40.2057 95.871 40.1875C96.345 40.151 96.9283 40.1055 97.621 40.0508C97.22 40.4154 96.901 40.7617 96.664 41.0898C96.427 41.418 96.2356 41.7096 96.0898 41.9648C95.9257 42.2565 95.8163 42.5299 95.7616 42.7852C95.6887 43.1133 95.6249 43.651 95.5702 44.3984C95.5338 45.1276 95.4882 45.9479 95.4335 46.8594C95.3971 47.7708 95.3606 48.7188 95.3241 49.7031C95.2877 50.6875 95.2512 51.5898 95.2148 52.4102C95.2148 53.0299 95.1965 53.6953 95.1601 54.4062C95.1236 55.0078 95.0872 55.6914 95.0507 56.457C95.0142 57.2044 94.9687 57.9609 94.914 58.7266L92.4804 58.7812C91.7695 57.5234 91.1679 56.4479 90.6757 55.5547C90.2017 54.6432 89.8098 53.8958 89.4999 53.3125C89.1536 52.638 88.8619 52.0729 88.6249 51.6172C88.4244 51.1797 88.1601 50.6784 87.832 50.1133C87.5585 49.6393 87.2122 49.056 86.7929 48.3633C86.3919 47.6706 85.9088 46.8776 85.3437 45.9844C85.289 47.2422 85.2616 48.3177 85.2616 49.2109C85.2799 50.0859 85.3072 50.8151 85.3437 51.3984C85.3984 52.0729 85.4622 52.638 85.5351 53.0938C85.6262 53.5312 85.7538 54.0234 85.9179 54.5703C86.0637 55.0443 86.2369 55.6003 86.4374 56.2383C86.6562 56.8763 86.9205 57.5964 87.2304 58.3984C86.1549 58.3438 85.3528 58.3164 84.8241 58.3164H84.0038C83.7486 58.3164 83.4023 58.3438 82.9648 58.3984C82.6002 58.4349 82.0989 58.4896 81.4609 58.5625C80.8411 58.6354 80.0663 58.7357 79.1366 58.8633C79.5741 58.3346 79.9205 57.8516 80.1757 57.4141C80.4491 56.9583 80.6588 56.5755 80.8046 56.2656C80.9869 55.901 81.1145 55.582 81.1874 55.3086C81.2421 55.0169 81.2786 54.5156 81.2968 53.8047C81.315 53.0755 81.315 52.2552 81.2968 51.3438C81.2968 50.4141 81.2786 49.4388 81.2421 48.418C81.2239 47.3971 81.1965 46.4492 81.1601 45.5742C81.1236 44.6992 81.078 43.9518 81.0234 43.332C80.9869 42.7122 80.9596 42.3294 80.9413 42.1836C80.8866 41.9466 80.7773 41.6914 80.6132 41.418C80.4674 41.181 80.276 40.9167 80.039 40.625C79.802 40.3151 79.4739 39.9779 79.0546 39.6133ZM96.7985 39.3672C98.0199 39.4219 98.9678 39.4492 99.6423 39.4492H100.654C100.946 39.4492 101.31 39.4401 101.748 39.4219C102.112 39.4036 102.577 39.3945 103.142 39.3945C103.707 39.3763 104.382 39.349 105.166 39.3125C104.801 39.5677 104.509 39.8138 104.291 40.0508C104.072 40.2878 103.899 40.4974 103.771 40.6797C103.625 40.8984 103.525 41.099 103.47 41.2812C103.343 41.7552 103.288 42.4023 103.306 43.2227C103.343 44.0247 103.425 44.8997 103.552 45.8477C103.68 46.7773 103.835 47.7253 104.017 48.6914C104.2 49.6576 104.382 50.5326 104.564 51.3164C104.765 52.1003 104.938 52.7474 105.084 53.2578C105.248 53.75 105.366 53.9961 105.439 53.9961C105.512 53.9961 105.649 53.7318 105.849 53.2031C106.068 52.6745 106.314 52.0091 106.588 51.207C106.861 50.3867 107.144 49.5026 107.435 48.5547C107.727 47.5885 107.991 46.6771 108.228 45.8203C108.483 44.9453 108.693 44.1979 108.857 43.5781C109.021 42.9401 109.103 42.5482 109.103 42.4023C109.085 42.2018 109.021 41.9922 108.912 41.7734C108.821 41.5729 108.657 41.3451 108.42 41.0898C108.201 40.8164 107.891 40.5065 107.49 40.1602C108.055 40.1419 108.538 40.1237 108.939 40.1055C109.358 40.0872 109.714 40.0781 110.006 40.0781H110.853H115.228C114.772 40.388 114.381 40.6888 114.052 40.9805C113.743 41.2721 113.487 41.5456 113.287 41.8008C113.05 42.0924 112.849 42.3659 112.685 42.6211C112.503 43.0039 112.202 43.8333 111.783 45.1094C111.601 45.6562 111.391 46.3216 111.154 47.1055C110.917 47.8893 110.634 48.8281 110.306 49.9219C109.978 51.0156 109.614 52.2826 109.213 53.7227C108.812 55.1445 108.356 56.7669 107.845 58.5898L104.045 59.082C103.589 57.6602 103.188 56.3659 102.841 55.1992C102.513 54.0143 102.222 53.0026 101.966 52.1641C101.675 51.1797 101.429 50.2956 101.228 49.5117C100.955 48.5638 100.718 47.6068 100.517 46.6406C100.335 45.6562 100.171 44.7721 100.025 43.9883C99.8975 43.1862 99.779 42.5208 99.6696 41.9922C99.5602 41.4635 99.4417 41.1536 99.3141 41.0625C99.2048 40.9714 99.0407 40.8529 98.822 40.707C98.6214 40.5794 98.3662 40.4154 98.0563 40.2148C97.7282 39.9961 97.3089 39.7135 96.7985 39.3672ZM123.7 39.4492C124.284 39.5951 124.84 39.7044 125.368 39.7773C125.897 39.8503 126.362 39.9049 126.763 39.9414C127.237 39.9961 127.674 40.0143 128.075 39.9961C128.586 39.9961 129.224 39.9505 129.989 39.8594C130.773 39.7682 131.575 39.6862 132.396 39.6133C133.216 39.5221 134 39.4674 134.747 39.4492C135.513 39.4128 136.133 39.4583 136.607 39.5859C137.081 39.6953 137.564 39.8685 138.056 40.1055C138.566 40.3242 139.031 40.6068 139.45 40.9531C139.87 41.2812 140.216 41.6732 140.489 42.1289C140.763 42.5664 140.918 43.0677 140.954 43.6328C140.936 44.3438 140.772 45.0091 140.462 45.6289C140.207 46.1576 139.779 46.7044 139.177 47.2695C138.575 47.8164 137.71 48.2357 136.579 48.5273C137.144 48.6003 137.627 48.7279 138.029 48.9102C138.448 49.0742 138.803 49.2747 139.095 49.5117C139.405 49.7305 139.651 49.9766 139.833 50.25C140.034 50.5234 140.189 50.7969 140.298 51.0703C140.571 51.7083 140.699 52.4193 140.681 53.2031C140.571 54.224 140.362 55.0352 140.052 55.6367C139.76 56.2383 139.423 56.7031 139.04 57.0312C138.657 57.3594 138.265 57.5872 137.864 57.7148C137.463 57.8424 137.099 57.9427 136.771 58.0156C136.443 58.0885 136.042 58.125 135.568 58.125C135.094 58.125 134.583 58.1159 134.036 58.0977C133.508 58.0612 132.961 58.0339 132.396 58.0156C131.831 57.9792 131.293 57.9792 130.782 58.0156C130.363 58.0521 129.853 58.0885 129.251 58.125C128.741 58.1615 128.103 58.207 127.337 58.2617C126.571 58.2982 125.678 58.3438 124.657 58.3984C124.858 58.2526 125.022 58.0885 125.15 57.9062C125.295 57.7057 125.414 57.5326 125.505 57.3867C125.596 57.2044 125.678 57.0312 125.751 56.8672C125.806 56.7214 125.851 56.3203 125.888 55.6641C125.924 55.0078 125.952 54.224 125.97 53.3125C125.988 52.3828 125.997 51.3893 125.997 50.332C126.015 49.2565 126.006 48.2266 125.97 47.2422C125.952 46.2396 125.915 45.3555 125.861 44.5898C125.824 43.806 125.769 43.2409 125.696 42.8945C125.587 42.5117 125.441 42.1198 125.259 41.7188C125.113 41.3724 124.904 40.9987 124.63 40.5977C124.375 40.1966 124.065 39.8138 123.7 39.4492ZM129.47 42.2383C129.47 42.3112 129.479 42.5573 129.497 42.9766C129.515 43.3411 129.534 43.9062 129.552 44.6719C129.588 45.4193 129.634 46.4857 129.689 47.8711C130.144 48.0716 130.591 48.181 131.029 48.1992C131.466 48.1992 131.858 48.181 132.204 48.1445C132.605 48.0898 132.988 47.9987 133.353 47.8711C133.845 47.6706 134.228 47.3424 134.501 46.8867C134.793 46.431 134.984 45.957 135.075 45.4648C135.185 44.9544 135.212 44.4805 135.157 44.043C135.103 43.5872 134.984 43.2591 134.802 43.0586C134.456 42.7487 134.027 42.4935 133.517 42.293C133.079 42.1289 132.523 42.0195 131.849 41.9648C131.193 41.8919 130.4 41.9831 129.47 42.2383ZM129.333 55.1992C130.008 55.5456 130.6 55.7734 131.111 55.8828C131.621 55.9922 132.049 56.0469 132.396 56.0469C132.797 56.0469 133.143 55.9922 133.435 55.8828C133.781 55.7188 134.118 55.5 134.446 55.2266C134.793 54.9349 135.048 54.5977 135.212 54.2148C135.394 53.8138 135.467 53.3763 135.431 52.9023C135.394 52.4102 135.185 51.8724 134.802 51.2891C134.456 50.8698 134.036 50.5417 133.544 50.3047C133.107 50.1042 132.551 49.9766 131.876 49.9219C131.22 49.8672 130.409 50.0221 129.443 50.3867L129.333 55.1992ZM144.452 46.7773L149.483 46.832C149.192 47.944 148.973 48.8919 148.827 49.6758C148.7 50.4596 148.617 51.1159 148.581 51.6445C148.508 52.2461 148.49 52.7565 148.526 53.1758C148.581 53.5586 148.672 53.9688 148.8 54.4062C148.909 54.7708 149.073 55.1901 149.292 55.6641C149.511 56.138 149.802 56.612 150.167 57.0859C149.948 57.013 149.711 56.9583 149.456 56.9219C149.201 56.8854 148.964 56.8581 148.745 56.8398C148.49 56.8216 148.235 56.8216 147.979 56.8398C147.724 56.8581 147.442 56.8854 147.132 56.9219C146.877 56.9583 146.567 57.0039 146.202 57.0586C145.838 57.1133 145.455 57.1862 145.054 57.2773C145.327 56.457 145.537 55.7461 145.683 55.1445C145.847 54.543 145.965 54.0417 146.038 53.6406C146.111 53.1667 146.157 52.7839 146.175 52.4922C146.175 52.1276 146.175 51.7174 146.175 51.2617C146.175 50.7878 146.175 50.332 146.175 49.8945C146.175 49.457 146.166 49.0742 146.147 48.7461C146.129 48.3997 146.093 48.181 146.038 48.0898L145.765 47.8164C145.655 47.7253 145.491 47.5977 145.272 47.4336C145.072 47.2513 144.798 47.0326 144.452 46.7773ZM146.394 42.5664C146.776 42.3659 147.159 42.3112 147.542 42.4023C147.943 42.4935 148.253 42.6667 148.472 42.9219C148.69 43.1771 148.763 43.4779 148.69 43.8242C148.636 44.1706 148.344 44.5078 147.815 44.8359C147.287 45.1458 146.822 45.2552 146.421 45.1641C146.02 45.0729 145.737 44.8815 145.573 44.5898C145.409 44.2982 145.382 43.9609 145.491 43.5781C145.601 43.1771 145.901 42.8398 146.394 42.5664ZM168.676 49.293C168.458 49.2565 168.184 49.2292 167.856 49.2109C167.546 49.1927 167.245 49.1836 166.954 49.1836C166.626 49.1836 166.279 49.1927 165.915 49.2109C165.532 49.2292 165.149 49.2474 164.766 49.2656C164.438 49.2839 164.065 49.3112 163.645 49.3477C163.244 49.3659 162.852 49.3932 162.469 49.4297C162.615 49.3568 162.743 49.2565 162.852 49.1289C162.98 49.0013 163.089 48.8737 163.18 48.7461C163.272 48.6003 163.354 48.4453 163.426 48.2812C163.518 48.0078 163.509 47.6797 163.399 47.2969C163.29 46.8958 163.089 46.5312 162.798 46.2031C162.524 45.875 162.169 45.6198 161.731 45.4375C161.312 45.237 160.847 45.1914 160.337 45.3008C159.79 45.4284 159.298 45.6198 158.86 45.875C158.441 46.1302 158.085 46.4857 157.794 46.9414C157.52 47.3789 157.32 47.9258 157.192 48.582C157.083 49.2201 157.055 49.9857 157.11 50.8789C157.183 51.9909 157.365 52.875 157.657 53.5312C157.949 54.1875 158.304 54.6797 158.723 55.0078C159.143 55.3359 159.598 55.5365 160.091 55.6094C160.601 55.6641 161.102 55.6641 161.594 55.6094C161.941 55.5365 162.26 55.3815 162.551 55.1445C162.788 54.944 163.007 54.6523 163.208 54.2695C163.408 53.8867 163.499 53.3581 163.481 52.6836L166.817 52.5469C166.434 53.6224 165.969 54.4792 165.423 55.1172C164.876 55.737 164.347 56.2201 163.837 56.5664C163.235 56.9674 162.634 57.2409 162.032 57.3867C161.285 57.5143 160.619 57.569 160.036 57.5508C159.453 57.5143 158.924 57.4232 158.45 57.2773C157.976 57.1315 157.538 56.9492 157.137 56.7305C156.736 56.5117 156.354 56.2747 155.989 56.0195C155.752 55.8555 155.488 55.582 155.196 55.1992C154.904 54.8164 154.631 54.3607 154.376 53.832C154.12 53.2852 153.911 52.6836 153.747 52.0273C153.583 51.3711 153.519 50.6966 153.555 50.0039C153.592 49.293 153.756 48.582 154.048 47.8711C154.339 47.1602 154.804 46.4766 155.442 45.8203C156.408 44.8359 157.438 44.1979 158.532 43.9062C159.644 43.5964 160.692 43.5143 161.676 43.6602C162.661 43.7878 163.536 44.0703 164.301 44.5078C165.067 44.9453 165.605 45.4193 165.915 45.9297C166.225 46.4401 166.453 46.832 166.598 47.1055C166.762 47.3607 166.881 47.5612 166.954 47.707C167.045 47.8346 167.118 47.9349 167.173 48.0078C167.245 48.0625 167.346 48.1445 167.473 48.2539C167.565 48.3451 167.674 48.4453 167.801 48.5547C167.911 48.6458 168.038 48.7552 168.184 48.8828C168.33 49.0104 168.494 49.1471 168.676 49.293ZM169.112 45.0273C169.476 45.082 169.805 45.1276 170.096 45.1641C170.37 45.1823 170.616 45.2005 170.834 45.2188C171.071 45.237 171.299 45.2461 171.518 45.2461C171.719 45.2461 171.974 45.237 172.284 45.2188C172.539 45.2005 172.867 45.1823 173.268 45.1641C173.687 45.1276 174.18 45.082 174.745 45.0273C174.708 45.1003 174.635 45.3281 174.526 45.7109C174.416 46.0755 174.307 46.5312 174.198 47.0781C174.088 47.6068 173.988 48.1992 173.897 48.8555C173.824 49.4935 173.788 50.1315 173.788 50.7695C173.806 51.3893 173.888 51.9818 174.034 52.5469C174.18 53.0938 174.416 53.5404 174.745 53.8867C175.437 54.5977 176.048 55.026 176.577 55.1719C177.124 55.3177 177.597 55.2995 177.999 55.1172C178.4 54.9349 178.728 54.6615 178.983 54.2969C179.238 53.9323 179.42 53.5951 179.53 53.2852C179.803 52.4466 179.967 51.5625 180.022 50.6328C180.058 49.8307 179.995 48.9375 179.831 47.9531C179.666 46.9688 179.275 45.9661 178.655 44.9453C179.129 44.9818 179.539 45.0091 179.885 45.0273C180.232 45.0456 180.532 45.0638 180.788 45.082C181.079 45.1003 181.334 45.1185 181.553 45.1367C181.754 45.1549 181.991 45.1549 182.264 45.1367C182.501 45.1367 182.784 45.1276 183.112 45.1094C183.458 45.0729 183.841 45.0365 184.26 45C184.333 46.7865 184.397 48.3815 184.452 49.7852C184.506 51.1706 184.543 52.401 184.561 53.4766C184.597 54.5339 184.616 55.4544 184.616 56.2383C184.616 57.0039 184.616 57.651 184.616 58.1797C184.597 59.4375 184.543 60.2669 184.452 60.668C184.306 61.2331 184.041 61.7982 183.659 62.3633C183.294 62.9284 182.829 63.4297 182.264 63.8672C181.699 64.3229 181.043 64.6693 180.295 64.9062C179.566 65.1615 178.764 65.2526 177.889 65.1797C177.032 65.1068 176.349 64.9883 175.838 64.8242C175.346 64.6784 174.954 64.5052 174.663 64.3047C174.389 64.1042 174.189 63.8945 174.061 63.6758C173.952 63.457 173.87 63.2292 173.815 62.9922C173.76 62.7734 173.706 62.5638 173.651 62.3633C173.596 62.1628 173.487 61.9896 173.323 61.8438C173.122 61.6797 172.913 61.5156 172.694 61.3516C172.493 61.2057 172.275 61.0599 172.038 60.9141C171.819 60.7682 171.6 60.6497 171.381 60.5586L177.206 60.2305C177.041 60.4492 176.923 60.6497 176.85 60.832C176.777 61.0143 176.732 61.1693 176.713 61.2969C176.695 61.4609 176.704 61.5977 176.741 61.707C176.814 61.9258 176.941 62.1628 177.124 62.418C177.324 62.6914 177.579 62.901 177.889 63.0469C178.199 63.2109 178.564 63.2656 178.983 63.2109C179.42 63.1562 179.913 62.9284 180.459 62.5273C180.915 62.181 181.298 61.625 181.608 60.8594C181.863 60.2031 182.064 59.2826 182.209 58.0977C182.355 56.9128 182.328 55.3542 182.127 53.4219C181.799 54.5521 181.353 55.418 180.788 56.0195C180.222 56.6211 179.657 57.0586 179.092 57.332C178.436 57.6602 177.752 57.8333 177.041 57.8516C176.094 57.8151 175.282 57.6966 174.608 57.4961C173.933 57.2773 173.377 56.9857 172.94 56.6211C172.502 56.2565 172.156 55.8281 171.901 55.3359C171.664 54.8255 171.491 54.2604 171.381 53.6406C171.272 53.0208 171.217 52.401 171.217 51.7812C171.217 51.1432 171.217 50.5508 171.217 50.0039C171.235 49.457 171.245 48.9648 171.245 48.5273C171.245 48.0716 171.199 47.707 171.108 47.4336C170.999 47.1602 170.853 46.8867 170.67 46.6133C170.525 46.3763 170.324 46.1211 170.069 45.8477C169.795 45.556 169.476 45.2826 169.112 45.0273ZM203.973 49.293C203.754 49.2565 203.481 49.2292 203.153 49.2109C202.843 49.1927 202.542 49.1836 202.25 49.1836C201.922 49.1836 201.576 49.1927 201.211 49.2109C200.828 49.2292 200.446 49.2474 200.063 49.2656C199.735 49.2839 199.361 49.3112 198.942 49.3477C198.541 49.3659 198.149 49.3932 197.766 49.4297C197.912 49.3568 198.039 49.2565 198.149 49.1289C198.276 49.0013 198.386 48.8737 198.477 48.7461C198.568 48.6003 198.65 48.4453 198.723 48.2812C198.814 48.0078 198.805 47.6797 198.696 47.2969C198.586 46.8958 198.386 46.5312 198.094 46.2031C197.821 45.875 197.465 45.6198 197.028 45.4375C196.608 45.237 196.143 45.1914 195.633 45.3008C195.086 45.4284 194.594 45.6198 194.156 45.875C193.737 46.1302 193.382 46.4857 193.09 46.9414C192.817 47.3789 192.616 47.9258 192.489 48.582C192.379 49.2201 192.352 49.9857 192.406 50.8789C192.479 51.9909 192.662 52.875 192.953 53.5312C193.245 54.1875 193.601 54.6797 194.02 55.0078C194.439 55.3359 194.895 55.5365 195.387 55.6094C195.897 55.6641 196.399 55.6641 196.891 55.6094C197.237 55.5365 197.556 55.3815 197.848 55.1445C198.085 54.944 198.304 54.6523 198.504 54.2695C198.705 53.8867 198.796 53.3581 198.778 52.6836L202.114 52.5469C201.731 53.6224 201.266 54.4792 200.719 55.1172C200.172 55.737 199.643 56.2201 199.133 56.5664C198.531 56.9674 197.93 57.2409 197.328 57.3867C196.581 57.5143 195.916 57.569 195.332 57.5508C194.749 57.5143 194.22 57.4232 193.746 57.2773C193.272 57.1315 192.835 56.9492 192.434 56.7305C192.033 56.5117 191.65 56.2747 191.285 56.0195C191.048 55.8555 190.784 55.582 190.492 55.1992C190.201 54.8164 189.927 54.3607 189.672 53.832C189.417 53.2852 189.207 52.6836 189.043 52.0273C188.879 51.3711 188.815 50.6966 188.852 50.0039C188.888 49.293 189.052 48.582 189.344 47.8711C189.636 47.1602 190.101 46.4766 190.739 45.8203C191.705 44.8359 192.735 44.1979 193.828 43.9062C194.94 43.5964 195.989 43.5143 196.973 43.6602C197.957 43.7878 198.832 44.0703 199.598 44.5078C200.364 44.9453 200.901 45.4193 201.211 45.9297C201.521 46.4401 201.749 46.832 201.895 47.1055C202.059 47.3607 202.177 47.5612 202.25 47.707C202.341 47.8346 202.414 47.9349 202.469 48.0078C202.542 48.0625 202.642 48.1445 202.77 48.2539C202.861 48.3451 202.97 48.4453 203.098 48.5547C203.207 48.6458 203.335 48.7552 203.481 48.8828C203.627 49.0104 203.791 49.1471 203.973 49.293ZM206.432 59.7656C206.614 59.4922 206.76 59.237 206.869 59C206.979 58.763 207.07 58.5625 207.143 58.3984C207.215 58.1979 207.27 58.0156 207.307 57.8516C207.325 57.7422 207.334 57.4232 207.334 56.8945C207.334 56.3659 207.316 55.7005 207.279 54.8984C207.261 54.0964 207.234 53.194 207.197 52.1914C207.179 51.1888 207.143 50.168 207.088 49.1289C207.051 48.0898 207.006 47.0781 206.951 46.0938C206.915 45.1094 206.878 44.2253 206.842 43.4414C206.805 42.6393 206.769 41.9831 206.732 41.4727C206.696 40.9622 206.669 40.6706 206.65 40.5977C206.614 40.4883 206.55 40.3789 206.459 40.2695C206.277 40.0508 205.967 39.8411 205.529 39.6406C206.459 39.4036 207.17 39.2122 207.662 39.0664C207.954 38.9935 208.209 38.9206 208.428 38.8477C208.628 38.7747 208.829 38.7018 209.029 38.6289C209.193 38.556 209.376 38.474 209.576 38.3828C209.777 38.2734 209.959 38.1549 210.123 38.0273C210.032 38.556 209.959 39.0664 209.904 39.5586C209.85 40.0508 209.804 40.5065 209.768 40.9258C209.731 41.3997 209.713 41.8555 209.713 42.293C209.622 43.1862 209.567 44.1615 209.549 45.2188C209.549 46.2578 209.558 47.3151 209.576 48.3906C209.594 49.4661 209.631 50.5143 209.686 51.5352C209.74 52.556 209.795 53.4857 209.85 54.3242C209.923 55.1445 209.986 55.8464 210.041 56.4297C210.114 56.9948 210.169 57.3594 210.205 57.5234C210.278 57.7969 210.351 58.0612 210.424 58.3164C210.497 58.5352 210.579 58.763 210.67 59C210.761 59.2552 210.87 59.4557 210.998 59.6016H208.346C208.109 59.6016 207.881 59.6107 207.662 59.6289C207.462 59.6471 207.252 59.6654 207.033 59.6836C206.814 59.7018 206.614 59.7292 206.432 59.7656ZM221.332 54.5977C221.842 54.5977 222.316 54.543 222.754 54.4336C223.118 54.3424 223.465 54.1966 223.793 53.9961C224.139 53.7773 224.367 53.4583 224.476 53.0391C224.841 53.112 225.151 53.1758 225.406 53.2305C225.661 53.2669 225.88 53.3034 226.062 53.3398C226.263 53.3945 226.436 53.431 226.582 53.4492C226.728 53.4857 226.901 53.5221 227.101 53.5586C227.284 53.5951 227.502 53.6406 227.758 53.6953C228.031 53.7318 228.35 53.7865 228.715 53.8594C228.441 53.8229 228.159 53.8503 227.867 53.9414C227.594 54.0326 227.329 54.1328 227.074 54.2422C226.782 54.3698 226.509 54.5247 226.254 54.707C226.09 54.8164 225.898 54.9805 225.679 55.1992C225.479 55.418 225.187 55.6276 224.804 55.8281C224.422 56.0286 223.911 56.2018 223.273 56.3477C222.653 56.4753 221.851 56.5208 220.867 56.4844C219.682 56.4479 218.689 56.2383 217.886 55.8555C217.084 55.4544 216.437 54.9714 215.945 54.4062C215.453 53.8229 215.097 53.194 214.879 52.5195C214.66 51.8451 214.541 51.2161 214.523 50.6328C214.505 50.0495 214.678 49.4388 215.043 48.8008C215.407 48.1628 215.918 47.5794 216.574 47.0508C217.248 46.5221 218.06 46.0938 219.008 45.7656C219.956 45.4193 220.995 45.2461 222.125 45.2461C222.781 45.2461 223.383 45.3281 223.929 45.4922C224.495 45.638 225.005 45.8385 225.461 46.0938C225.935 46.349 226.345 46.6406 226.691 46.9688C227.038 47.2786 227.329 47.5977 227.566 47.9258C227.803 48.2721 228.004 48.6367 228.168 49.0195C228.314 49.3477 228.432 49.7214 228.523 50.1406C228.614 50.5599 228.642 50.9883 228.605 51.4258C227.22 51.4622 226.099 51.4896 225.242 51.5078C224.403 51.526 223.747 51.5352 223.273 51.5352H222.043H221.113C220.785 51.5352 220.357 51.5443 219.828 51.5625C219.299 51.5807 218.652 51.6081 217.886 51.6445C217.978 52.3737 218.206 52.9388 218.57 53.3398C218.953 53.7227 219.354 54.0143 219.773 54.2148C220.247 54.4336 220.767 54.5612 221.332 54.5977ZM218.871 49.6758C219.454 49.7122 219.937 49.7396 220.32 49.7578C220.721 49.776 221.049 49.7943 221.304 49.8125C221.578 49.8307 221.797 49.8398 221.961 49.8398H222.644C223.1 49.8398 223.948 49.8125 225.187 49.7578C225.133 48.9557 224.959 48.3451 224.668 47.9258C224.394 47.5065 224.103 47.1966 223.793 46.9961C223.428 46.7773 223.027 46.6497 222.59 46.6133C221.405 46.6315 220.521 46.8776 219.937 47.3516C219.372 47.8255 219.017 48.6003 218.871 49.6758ZM240.14 39.4492C240.723 39.5951 241.279 39.7044 241.808 39.7773C242.337 39.8503 242.801 39.9049 243.202 39.9414C243.676 39.9961 244.114 40.0143 244.515 39.9961C245.025 39.9961 245.663 39.9505 246.429 39.8594C247.213 39.7682 248.015 39.6862 248.835 39.6133C249.656 39.5221 250.439 39.4674 251.187 39.4492C251.952 39.4128 252.572 39.4583 253.046 39.5859C253.52 39.6953 254.003 39.8685 254.495 40.1055C255.006 40.3242 255.471 40.6068 255.89 40.9531C256.309 41.2812 256.656 41.6732 256.929 42.1289C257.202 42.5664 257.357 43.0677 257.394 43.6328C257.376 44.3438 257.212 45.0091 256.902 45.6289C256.646 46.1576 256.218 46.7044 255.616 47.2695C255.015 47.8164 254.149 48.2357 253.019 48.5273C253.584 48.6003 254.067 48.7279 254.468 48.9102C254.887 49.0742 255.243 49.2747 255.534 49.5117C255.844 49.7305 256.09 49.9766 256.273 50.25C256.473 50.5234 256.628 50.7969 256.738 51.0703C257.011 51.7083 257.139 52.4193 257.12 53.2031C257.011 54.224 256.801 55.0352 256.491 55.6367C256.2 56.2383 255.863 56.7031 255.48 57.0312C255.097 57.3594 254.705 57.5872 254.304 57.7148C253.903 57.8424 253.538 57.9427 253.21 58.0156C252.882 58.0885 252.481 58.125 252.007 58.125C251.533 58.125 251.023 58.1159 250.476 58.0977C249.947 58.0612 249.4 58.0339 248.835 58.0156C248.27 57.9792 247.732 57.9792 247.222 58.0156C246.803 58.0521 246.292 58.0885 245.691 58.125C245.18 58.1615 244.542 58.207 243.777 58.2617C243.011 58.2982 242.118 58.3438 241.097 58.3984C241.297 58.2526 241.462 58.0885 241.589 57.9062C241.735 57.7057 241.853 57.5326 241.945 57.3867C242.036 57.2044 242.118 57.0312 242.191 56.8672C242.245 56.7214 242.291 56.3203 242.327 55.6641C242.364 55.0078 242.391 54.224 242.409 53.3125C242.428 52.3828 242.437 51.3893 242.437 50.332C242.455 49.2565 242.446 48.2266 242.409 47.2422C242.391 46.2396 242.355 45.3555 242.3 44.5898C242.264 43.806 242.209 43.2409 242.136 42.8945C242.027 42.5117 241.881 42.1198 241.699 41.7188C241.553 41.3724 241.343 40.9987 241.07 40.5977C240.814 40.1966 240.505 39.8138 240.14 39.4492ZM245.909 42.2383C245.909 42.3112 245.919 42.5573 245.937 42.9766C245.955 43.3411 245.973 43.9062 245.991 44.6719C246.028 45.4193 246.074 46.4857 246.128 47.8711C246.584 48.0716 247.031 48.181 247.468 48.1992C247.906 48.1992 248.297 48.181 248.644 48.1445C249.045 48.0898 249.428 47.9987 249.792 47.8711C250.284 47.6706 250.667 47.3424 250.941 46.8867C251.232 46.431 251.424 45.957 251.515 45.4648C251.624 44.9544 251.652 44.4805 251.597 44.043C251.542 43.5872 251.424 43.2591 251.241 43.0586C250.895 42.7487 250.467 42.4935 249.956 42.293C249.519 42.1289 248.963 42.0195 248.288 41.9648C247.632 41.8919 246.839 41.9831 245.909 42.2383ZM245.773 55.1992C246.447 55.5456 247.04 55.7734 247.55 55.8828C248.06 55.9922 248.489 56.0469 248.835 56.0469C249.236 56.0469 249.583 55.9922 249.874 55.8828C250.221 55.7188 250.558 55.5 250.886 55.2266C251.232 54.9349 251.488 54.5977 251.652 54.2148C251.834 53.8138 251.907 53.3763 251.87 52.9023C251.834 52.4102 251.624 51.8724 251.241 51.2891C250.895 50.8698 250.476 50.5417 249.984 50.3047C249.546 50.1042 248.99 49.9766 248.316 49.9219C247.659 49.8672 246.848 50.0221 245.882 50.3867L245.773 55.1992ZM261.028 46.4219C261.502 46.513 261.912 46.5859 262.259 46.6406C262.623 46.6771 262.933 46.7135 263.189 46.75C263.48 46.7865 263.735 46.8138 263.954 46.832C264.173 46.8503 264.428 46.8685 264.72 46.8867C265.212 46.9049 265.905 46.9049 266.798 46.8867C266.269 46.8503 265.85 46.987 265.54 47.2969C265.248 47.5885 265.03 47.9258 264.884 48.3086C264.702 48.7643 264.601 49.293 264.583 49.8945C264.547 50.6966 264.565 51.4258 264.638 52.082C264.729 52.7201 264.884 53.2669 265.103 53.7227C265.34 54.1602 265.649 54.4883 266.032 54.707C266.415 54.9076 266.907 54.9622 267.509 54.8711C268.11 54.7799 268.566 54.5703 268.876 54.2422C269.204 53.8958 269.441 53.4766 269.587 52.9844C269.733 52.474 269.815 51.8997 269.833 51.2617C269.87 50.6237 269.897 49.9583 269.915 49.2656C269.915 48.5729 269.906 48.0807 269.888 47.7891C269.888 47.4792 269.879 47.2786 269.86 47.1875C269.842 47.0964 269.815 47.0599 269.778 47.0781C269.742 47.0781 269.696 47.0326 269.642 46.9414C269.605 46.8685 269.551 46.7956 269.478 46.7227C269.423 46.6497 269.35 46.5677 269.259 46.4766C269.168 46.3672 269.067 46.2578 268.958 46.1484C269.432 46.1667 269.851 46.1849 270.216 46.2031C270.599 46.2031 270.918 46.2122 271.173 46.2305C271.465 46.2487 271.72 46.2669 271.939 46.2852C272.139 46.3034 272.403 46.3307 272.731 46.3672C273.005 46.4036 273.36 46.4401 273.798 46.4766C274.235 46.513 274.755 46.5677 275.356 46.6406C274.937 46.7318 274.6 46.8685 274.345 47.0508C274.09 47.2331 273.889 47.4154 273.743 47.5977C273.579 47.7982 273.461 48.0169 273.388 48.2539C273.333 48.5638 273.333 49.0378 273.388 49.6758C273.424 50.2409 273.515 51.0156 273.661 52C273.807 52.9844 274.035 54.2786 274.345 55.8828L272.185 57.168L271.747 53.5312C271.218 54.4245 270.653 55.1172 270.052 55.6094C269.468 56.0833 268.922 56.4297 268.411 56.6484C267.81 56.9036 267.226 57.0495 266.661 57.0859C265.914 57.0859 265.267 57.0404 264.72 56.9492C264.191 56.8398 263.735 56.7031 263.353 56.5391C262.97 56.375 262.66 56.1927 262.423 55.9922C262.204 55.7734 262.04 55.5547 261.931 55.3359C261.676 54.8802 261.539 54.2969 261.521 53.5859C261.502 52.8568 261.53 52.1367 261.603 51.4258C261.676 50.6966 261.758 50.0312 261.849 49.4297C261.94 48.8281 261.967 48.418 261.931 48.1992C261.894 48.0352 261.84 47.8529 261.767 47.6523C261.694 47.4883 261.603 47.306 261.493 47.1055C261.384 46.8867 261.229 46.6589 261.028 46.4219ZM278.007 46.7773L283.038 46.832C282.746 47.944 282.527 48.8919 282.382 49.6758C282.254 50.4596 282.172 51.1159 282.136 51.6445C282.063 52.2461 282.044 52.7565 282.081 53.1758C282.136 53.5586 282.227 53.9688 282.354 54.4062C282.464 54.7708 282.628 55.1901 282.846 55.6641C283.065 56.138 283.357 56.612 283.721 57.0859C283.503 57.013 283.266 56.9583 283.011 56.9219C282.755 56.8854 282.518 56.8581 282.3 56.8398C282.044 56.8216 281.789 56.8216 281.534 56.8398C281.279 56.8581 280.996 56.8854 280.686 56.9219C280.431 56.9583 280.121 57.0039 279.757 57.0586C279.392 57.1133 279.009 57.1862 278.608 57.2773C278.882 56.457 279.091 55.7461 279.237 55.1445C279.401 54.543 279.52 54.0417 279.593 53.6406C279.666 53.1667 279.711 52.7839 279.729 52.4922C279.729 52.1276 279.729 51.7174 279.729 51.2617C279.729 50.7878 279.729 50.332 279.729 49.8945C279.729 49.457 279.72 49.0742 279.702 48.7461C279.684 48.3997 279.647 48.181 279.593 48.0898L279.319 47.8164C279.21 47.7253 279.046 47.5977 278.827 47.4336C278.626 47.2513 278.353 47.0326 278.007 46.7773ZM279.948 42.5664C280.331 42.3659 280.714 42.3112 281.096 42.4023C281.498 42.4935 281.807 42.6667 282.026 42.9219C282.245 43.1771 282.318 43.4779 282.245 43.8242C282.19 44.1706 281.899 44.5078 281.37 44.8359C280.841 45.1458 280.376 45.2552 279.975 45.1641C279.574 45.0729 279.292 44.8815 279.128 44.5898C278.964 44.2982 278.936 43.9609 279.046 43.5781C279.155 43.1771 279.456 42.8398 279.948 42.5664ZM287.575 59.7656C287.757 59.4922 287.903 59.237 288.012 59C288.122 58.763 288.213 58.5625 288.286 58.3984C288.359 58.1979 288.413 58.0156 288.45 57.8516C288.468 57.7422 288.477 57.4232 288.477 56.8945C288.477 56.3659 288.459 55.7005 288.422 54.8984C288.404 54.0964 288.377 53.194 288.34 52.1914C288.322 51.1888 288.286 50.168 288.231 49.1289C288.195 48.0898 288.149 47.0781 288.094 46.0938C288.058 45.1094 288.021 44.2253 287.985 43.4414C287.948 42.6393 287.912 41.9831 287.876 41.4727C287.839 40.9622 287.812 40.6706 287.794 40.5977C287.757 40.4883 287.693 40.3789 287.602 40.2695C287.42 40.0508 287.11 39.8411 286.672 39.6406C287.602 39.4036 288.313 39.2122 288.805 39.0664C289.097 38.9935 289.352 38.9206 289.571 38.8477C289.771 38.7747 289.972 38.7018 290.172 38.6289C290.336 38.556 290.519 38.474 290.719 38.3828C290.92 38.2734 291.102 38.1549 291.266 38.0273C291.175 38.556 291.102 39.0664 291.047 39.5586C290.993 40.0508 290.947 40.5065 290.911 40.9258C290.874 41.3997 290.856 41.8555 290.856 42.293C290.765 43.1862 290.71 44.1615 290.692 45.2188C290.692 46.2578 290.701 47.3151 290.719 48.3906C290.738 49.4661 290.774 50.5143 290.829 51.5352C290.883 52.556 290.938 53.4857 290.993 54.3242C291.066 55.1445 291.129 55.8464 291.184 56.4297C291.257 56.9948 291.312 57.3594 291.348 57.5234C291.421 57.7969 291.494 58.0612 291.567 58.3164C291.64 58.5352 291.722 58.763 291.813 59C291.904 59.2552 292.014 59.4557 292.141 59.6016H289.489C289.252 59.6016 289.024 59.6107 288.805 59.6289C288.605 59.6471 288.395 59.6654 288.176 59.6836C287.958 59.7018 287.757 59.7292 287.575 59.7656ZM308.791 38.0547C309.138 38.0729 309.511 38.082 309.912 38.082C310.259 38.082 310.651 38.0911 311.088 38.1094C311.544 38.1094 312.018 38.0911 312.51 38.0547C312.073 38.2552 311.69 38.5469 311.362 38.9297C311.034 39.3125 310.769 39.6953 310.569 40.0781C310.313 40.5339 310.104 41.0078 309.94 41.5C309.849 41.7917 309.776 42.3112 309.721 43.0586C309.666 43.7878 309.621 44.6445 309.584 45.6289C309.566 46.6133 309.557 47.6523 309.557 48.7461C309.557 49.8398 309.566 50.888 309.584 51.8906C309.603 52.875 309.63 53.75 309.666 54.5156C309.703 55.2812 309.748 55.819 309.803 56.1289C309.876 56.4935 309.967 56.8398 310.076 57.168C310.168 57.4596 310.286 57.7604 310.432 58.0703C310.578 58.362 310.76 58.599 310.979 58.7812L308.19 60.0391C308.044 59.8385 307.925 59.6289 307.834 59.4102C307.743 59.2096 307.67 59.0273 307.616 58.8633C307.543 58.6628 307.497 58.4805 307.479 58.3164C307.442 58.0977 307.406 57.8607 307.369 57.6055C307.333 57.332 307.287 57.0768 307.233 56.8398C307.196 56.5846 307.169 56.375 307.151 56.2109C307.132 56.0469 307.132 55.9466 307.151 55.9102C307.169 55.8737 307.06 56.0378 306.823 56.4023C306.586 56.7487 306.23 57.1589 305.756 57.6328C305.3 58.0885 304.735 58.5352 304.061 58.9727C303.386 59.3919 302.63 59.6562 301.791 59.7656C300.935 59.875 300.142 59.7109 299.412 59.2734C298.701 58.8359 298.091 58.2253 297.58 57.4414C297.07 56.6393 296.678 55.7188 296.405 54.6797C296.149 53.6224 296.049 52.5469 296.104 51.4531C296.14 50.724 296.304 50.0768 296.596 49.5117C296.888 48.9284 297.252 48.4271 297.69 48.0078C298.145 47.5703 298.638 47.2057 299.166 46.9141C299.713 46.6042 300.242 46.349 300.752 46.1484C301.281 45.9479 301.773 45.8021 302.229 45.7109C302.685 45.6198 303.049 45.556 303.323 45.5195C303.651 45.5013 304.024 45.556 304.444 45.6836C304.808 45.793 305.228 45.9753 305.701 46.2305C306.194 46.4857 306.741 46.8685 307.342 47.3789C307.233 45.556 307.132 44.0977 307.041 43.0039C306.95 41.8919 306.859 41.0443 306.768 40.4609C306.677 39.7682 306.595 39.2943 306.522 39.0391C306.431 38.8568 306.312 38.6745 306.166 38.4922C306.039 38.3464 305.875 38.2005 305.674 38.0547C305.492 37.8906 305.273 37.763 305.018 37.6719C305.492 37.763 305.948 37.8268 306.385 37.8633C306.823 37.8997 307.224 37.9362 307.588 37.9727C308.007 38.0091 308.409 38.0365 308.791 38.0547ZM301.928 48.2539C301.582 48.3815 301.299 48.6003 301.08 48.9102C300.88 49.2201 300.716 49.5938 300.588 50.0312C300.461 50.4505 300.369 50.9062 300.315 51.3984C300.278 51.8724 300.251 52.3372 300.233 52.793C300.233 53.2305 300.233 53.6315 300.233 53.9961C300.233 54.3607 300.233 54.6341 300.233 54.8164C300.233 54.9258 300.251 55.1263 300.287 55.418C300.342 55.6914 300.451 55.9831 300.616 56.293C300.78 56.5846 301.007 56.849 301.299 57.0859C301.609 57.3229 302.019 57.4414 302.53 57.4414C302.949 57.4049 303.395 57.2591 303.869 57.0039C304.289 56.7852 304.763 56.4388 305.291 55.9648C305.838 55.4727 306.422 54.7708 307.041 53.8594C307.005 53.276 306.978 52.793 306.959 52.4102C306.959 52.0273 306.95 51.7174 306.932 51.4805C306.914 51.207 306.905 50.9883 306.905 50.8242V50.4141C306.905 50.3047 306.905 50.1862 306.905 50.0586C306.905 49.931 306.914 49.8125 306.932 49.7031C306.422 49.3385 305.966 49.0286 305.565 48.7734C305.182 48.5 304.799 48.2995 304.416 48.1719C304.052 48.026 303.669 47.9622 303.268 47.9805C302.885 47.9805 302.438 48.0716 301.928 48.2539ZM326.234 43.3867C326.07 43.7878 325.925 44.1523 325.797 44.4805C325.688 44.8086 325.587 45.1003 325.496 45.3555C325.405 45.6471 325.323 45.9023 325.25 46.1211C325.177 46.3763 325.095 46.668 325.004 46.9961C324.913 47.2878 324.794 47.6523 324.648 48.0898C324.521 48.5091 324.366 49.0104 324.184 49.5938C324.038 48.7188 323.773 48.026 323.391 47.5156C323.008 46.987 322.616 46.5768 322.215 46.2852C321.741 45.957 321.231 45.7201 320.684 45.5742C319.699 45.4102 318.988 45.4284 318.551 45.6289C318.113 45.8294 317.822 46.0846 317.676 46.3945C317.603 46.5221 317.521 46.6862 317.43 46.8867C317.357 47.069 317.293 47.2604 317.238 47.4609C317.202 47.6615 317.193 47.862 317.211 48.0625C317.229 48.263 317.311 48.4271 317.457 48.5547C317.548 48.6458 317.785 48.7734 318.168 48.9375C318.551 49.0833 319.007 49.2565 319.535 49.457C320.082 49.6393 320.656 49.8398 321.258 50.0586C321.878 50.2773 322.461 50.4961 323.008 50.7148C323.555 50.9336 324.029 51.1523 324.43 51.3711C324.831 51.5898 325.095 51.7904 325.223 51.9727C325.332 52.1549 325.451 52.401 325.578 52.7109C325.724 53.0026 325.824 53.3307 325.879 53.6953C325.952 54.0417 325.97 54.4062 325.934 54.7891C325.915 55.1536 325.815 55.5182 325.633 55.8828C325.451 56.2474 325.159 56.5846 324.758 56.8945C324.375 57.2044 323.856 57.4596 323.199 57.6602C322.434 57.8971 321.695 57.9609 320.984 57.8516C320.273 57.7422 319.617 57.5781 319.016 57.3594C318.432 57.1406 317.922 56.931 317.484 56.7305C317.047 56.5117 316.737 56.4206 316.555 56.457C316.354 56.4935 316.126 56.5938 315.871 56.7578C315.616 56.9219 315.37 57.0951 315.133 57.2773C314.914 57.4414 314.723 57.5964 314.559 57.7422C314.395 57.8698 314.313 57.9154 314.313 57.8789C314.313 57.8424 314.34 57.7331 314.395 57.5508C314.468 57.3685 314.54 57.1497 314.613 56.8945C314.704 56.6211 314.787 56.3294 314.859 56.0195C314.951 55.6914 315.014 55.3815 315.051 55.0898C315.087 54.8529 315.133 54.5612 315.188 54.2148C315.224 53.9049 315.27 53.5312 315.324 53.0938C315.397 52.638 315.479 52.0911 315.57 51.4531C315.662 51.9271 315.789 52.3372 315.953 52.6836C316.135 53.0299 316.309 53.3307 316.473 53.5859C316.673 53.8776 316.865 54.1237 317.047 54.3242C317.32 54.5794 317.639 54.8164 318.004 55.0352C318.387 55.2539 318.77 55.4453 319.152 55.6094C319.535 55.7552 319.9 55.8464 320.246 55.8828C320.593 55.9193 320.884 55.8828 321.121 55.7734C321.358 55.6641 321.559 55.4635 321.723 55.1719C321.905 54.8802 322.033 54.5612 322.106 54.2148C322.178 53.8685 322.206 53.5404 322.188 53.2305C322.169 52.9023 322.087 52.638 321.941 52.4375C321.832 52.3099 321.577 52.1458 321.176 51.9453C320.793 51.7448 320.328 51.526 319.781 51.2891C319.253 51.0521 318.688 50.806 318.086 50.5508C317.503 50.2956 316.947 50.0404 316.418 49.7852C315.908 49.5117 315.479 49.2565 315.133 49.0195C314.805 48.7643 314.622 48.5365 314.586 48.3359C314.55 48.0443 314.522 47.7253 314.504 47.3789C314.486 47.0143 314.504 46.6589 314.559 46.3125C314.632 45.9479 314.759 45.6016 314.941 45.2734C315.142 44.9453 315.434 44.6719 315.816 44.4531C316.072 44.3073 316.409 44.1979 316.828 44.125C317.247 44.0521 317.712 44.0156 318.223 44.0156C318.733 43.9974 319.262 44.0156 319.809 44.0703C320.356 44.1068 320.875 44.1615 321.367 44.2344C321.878 44.2891 322.333 44.362 322.734 44.4531C323.154 44.5443 323.473 44.6263 323.691 44.6992C323.947 44.7904 324.22 44.7995 324.512 44.7266C324.767 44.6719 325.04 44.5534 325.332 44.3711C325.624 44.1888 325.925 43.8607 326.234 43.3867Z" fill="#FE5F55"/>
</svg>
